HIERARCHY
ROOT Hips
{
	OFFSET	0	0	0
	CHANNELS 6  Xposition Yposition Zposition Xrotation Yrotation Zrotation
	JOINT Spine
	{
		OFFSET	0	3.21788	0.646011
		CHANNELS 3  Xrotation Yrotation Zrotation
		JOINT Spine1
		{
			OFFSET	0	5.50913	-0.983773
			CHANNELS 3  Xrotation Yrotation Zrotation
			JOINT Spine2
			{
				OFFSET	0	4.17611	0.447617
				CHANNELS 3  Xrotation Yrotation Zrotation
				JOINT Spine3
				{
					OFFSET	0	4.99756	1.4855
					CHANNELS 3  Xrotation Yrotation Zrotation
					JOINT Spine4
					{
						OFFSET	0	7.39797	-0.757505
						CHANNELS 3  Xrotation Yrotation Zrotation
						JOINT Neck
						{
							OFFSET	0	3.53174	-2.47419
							CHANNELS 3  Xrotation Yrotation Zrotation
							JOINT Head
							{
								OFFSET	0	4.24006	-1.26907
								CHANNELS 3  Xrotation Yrotation Zrotation
								End Site
								{
									OFFSET	0	8.84412	-0.427941
								}
							}
						}
					}
					JOINT LeftShoulder
					{
						OFFSET	-2.12495	8.99168	-4.24006
						CHANNELS 3  Xrotation Yrotation Zrotation
						JOINT LeftArm
						{
							OFFSET	-4.608	-1.26907	1.62815
							CHANNELS 3  Xrotation Yrotation Zrotation
							JOINT LeftForeArm
							{
								OFFSET	-16.0972	-0.734705	1.149
								CHANNELS 3  Xrotation Yrotation Zrotation
								JOINT LeftHand
								{
									OFFSET	-13.6504	-0.943317	0.974348
									CHANNELS 3  Xrotation Yrotation Zrotation
									End Site
									{
										OFFSET	-4.9817	-0.344263	0.355566
									}
								}
							}
						}
					}
					JOINT RightShoulder
					{
						OFFSET	2.12495	8.99168	-4.24006
						CHANNELS 3  Xrotation Yrotation Zrotation
						JOINT RightArm
						{
							OFFSET	4.608	-1.26907	1.62815
							CHANNELS 3  Xrotation Yrotation Zrotation
							JOINT RightForeArm
							{
								OFFSET	16.0972	-0.734705	1.149
								CHANNELS 3  Xrotation Yrotation Zrotation
								JOINT RightHand
								{
									OFFSET	13.6504	-0.943317	0.974348
									CHANNELS 3  Xrotation Yrotation Zrotation
									End Site
									{
										OFFSET	4.9817	-0.344263	0.355566
									}
								}
							}
						}
					}
				}
			}
		}
	}
	JOINT LeftUpLeg
	{
		OFFSET	-4.31353	-1.60894	-0.323005
		CHANNELS 3  Xrotation Yrotation Zrotation
		JOINT LeftLeg
		{
			OFFSET	-1.16342	-22.7968	-0.356364
			CHANNELS 3  Xrotation Yrotation Zrotation
			JOINT LeftFoot
			{
				OFFSET	-1.12128	-20.6687	1.77751
				CHANNELS 3  Xrotation Yrotation Zrotation
				JOINT LeftToeBase
				{
					OFFSET	0	-2.59065	-6.88078
					CHANNELS 3  Xrotation Yrotation Zrotation
					End Site
					{
						OFFSET	0	-1.03626	-4.14505
					}
				}
			}
		}
	}
	JOINT RightUpLeg
	{
		OFFSET	4.31353	-1.60894	-0.323005
		CHANNELS 3  Xrotation Yrotation Zrotation
		JOINT RightLeg
		{
			OFFSET	1.16342	-22.7968	-0.356364
			CHANNELS 3  Xrotation Yrotation Zrotation
			JOINT RightFoot
			{
				OFFSET	1.12128	-20.6687	1.77751
				CHANNELS 3  Xrotation Yrotation Zrotation
				JOINT RightToeBase
				{
					OFFSET	0	-2.59065	-6.88078
					CHANNELS 3  Xrotation Yrotation Zrotation
					End Site
					{
						OFFSET	0	-1.03626	-4.14505
					}
				}
			}
		}
	}
}
MOTION
Frames: 14
Frame Time: 0.033333
 -4.64073 50.9986 17.4606 178.704 -16.28 179.512 3.36302e-06 -0.00275994 0.0698154 6.09247 -0.00551988 0.116359 7.52702 -0.0165596 0.116359 8.36524 -0.00275994 0.0698154 171.989 -179.997 -179.977 151.301 -177.908 -174.981 171.364 -175.177 -179.491 168.624 -155.314 154.633 50.6886 -19.8552 81.7191 179.82 -58.8043 179.824 -0 12.3008 -70.3891 1.49189 28.5824 -3.24107 127.946 89.7817 -151.437 62.8039 19.5834 -33.037 -0 -19.098 41.7922 179.125 178.9 177.757 7.20332 0.57694 -8.84798 162.959 179.907 -165.704 151.387 180 -180 170.404 -167.108 -179.631 10.148 -7.85832 7.86297 167.24 179.98 167.017 155.651 180 -180
 -4.63409 50.9938 17.4619 178.616 -16.2568 179.469 2.03131e-06 -0.0018128 0.0642021 6.07881 -0.0036256 0.107003 7.51322 -0.0108768 0.107003 8.35573 -0.0018128 0.0642021 171.986 -179.997 -179.979 151.302 -177.661 -174.578 171.358 -174.633 -179.475 168.568 -154.923 154.5 50.6341 -19.2946 81.6674 179.923 -58.6104 179.958 -0 12.1855 -70.2821 1.50166 28.6011 -3.26228 126.166 89.7701 -149.705 62.6528 19.6276 -32.9219 -0 -20.073 42.1992 179.004 179.063 177.742 7.16206 0.386153 -8.79688 163.042 179.874 -165.712 151.387 180 -180 170.354 -167.175 -179.593 10.0347 -7.68324 7.87168 167.338 -179.981 167.017 155.557 180 -180
 -4.62736 50.9973 17.4627 178.51 -16.3528 179.432 6.61005e-06 -0.00602886 0.0628192 6.06871 -0.0120577 0.104699 7.50177 -0.0361731 0.104699 8.34484 -0.00602886 0.0628192 171.992 -179.997 -179.979 151.329 -177.451 -174.271 171.359 -174.172 -179.47 168.516 -154.39 154.38 50.5965 -18.7367 81.603 0.0915928 -121.259 0.13727 -0 12.0428 -70.3025 1.49601 28.5701 -3.25002 125.585 89.7752 -149.231 62.3662 19.7501 -32.7662 -0 -20.8242 42.541 178.89 179.36 177.741 7.08853 0.156043 -8.77354 163.094 179.851 -165.721 151.386 180 -180 170.203 -167.073 -179.592 10.0105 -7.68104 7.86741 167.303 -179.952 166.719 155.472 180 -180
 -4.6371 51.0051 17.4809 178.432 -16.3027 179.442 1.39395e-08 -1.35613e-05 0.0588937 6.06211 -2.71226e-05 0.0981562 7.49756 -8.13678e-05 0.0981562 8.34776 -1.35613e-05 0.0588937 171.973 -179.997 -179.981 151.279 -177.252 -174.035 171.338 -173.755 -179.478 168.467 -153.832 154.268 50.2373 -18.515 81.3966 0.380332 -121.275 0.342664 -0 11.9322 -70.3461 1.50477 28.6024 -3.26905 126.665 89.7509 -150.392 62.0929 19.8878 -32.5757 -0 -21.5701 42.8725 178.781 179.303 177.654 7.08591 0.257439 -8.72115 163.086 179.89 -165.706 151.385 180 -180 170.123 -167.126 -179.617 9.95497 -7.72639 7.85814 167.266 -179.926 166.226 155.397 180 -180
 -4.64765 51.0141 17.4951 178.321 -16.3973 179.44 180 179.999 -179.937 6.05672 0.00265199 0.104458 7.4922 0.00795597 0.104458 8.34428 0.001326 0.0626749 171.971 -179.997 -179.979 151.277 -177.038 -173.573 171.33 -173.269 -179.438 168.462 -153.721 154.256 50.1946 -18.454 81.3766 0.623897 -121.07 0.544099 -0 11.7766 -70.2995 1.49268 28.6371 -3.24272 141.32 89.6644 -164.978 61.7644 19.8269 -32.25 -0 -22.3274 43.0628 178.701 179.249 177.65 7.06002 0.323087 -8.74169 163.077 179.935 -165.683 151.385 180 -180 169.952 -167.061 -179.66 9.95211 -7.8161 7.83243 167.185 -179.906 165.708 155.329 180 -180
 -4.64103 51.0239 17.4882 178.249 -16.4086 179.468 180 179.993 -179.941 6.05273 0.0138251 0.0976748 7.48749 0.0414753 0.0976749 8.33958 0.00691255 0.0586049 171.974 -179.997 -179.981 151.287 -176.799 -172.843 171.324 -172.695 -179.345 168.465 -153.719 154.264 50.2052 -18.4205 81.321 0.838228 -120.907 0.72102 -0 11.5783 -70.1891 1.52927 28.6731 -3.32222 127.971 89.665 -151.785 61.412 19.9512 -31.8519 -0 -22.994 43.3977 178.684 179.092 177.626 7.04507 0.522857 -8.72017 163.042 179.99 -165.66 151.384 180 -180 169.894 -167.162 -179.696 9.9206 -7.79316 7.8116 167.113 -179.9 165.711 155.269 180 -180
 -4.65527 51.0299 17.5188 178.202 -16.4496 179.539 180 179.993 -179.946 6.04855 0.0138667 0.0907579 7.483 0.0416 0.0907579 8.33587 0.00693333 0.0544547 171.975 -179.997 -179.982 151.291 -176.525 -172.389 171.314 -172.089 -179.326 168.458 -153.711 154.247 50.1829 -18.3034 81.2373 1.00142 -120.919 0.853424 -0 11.3543 -70.2267 1.542 28.6948 -3.34987 121.639 89.6384 -145.523 61.089 20.0298 -31.5668 -0 -23.555 43.6832 178.662 179.028 177.498 6.98463 0.630242 -8.67583 163.083 -179.976 -165.658 151.384 180 -180 169.839 -167.221 -179.778 9.87659 -7.87478 7.74909 167.109 -179.921 165.712 155.215 180 -180
 -4.67796 51.0356 17.5277 178.14 -16.5593 179.568 180 179.994 -179.936 6.04348 0.0123908 0.1064 7.47846 0.0371725 0.1064 8.33409 0.00619542 0.0638402 171.969 -179.997 -179.979 151.282 -176.151 -172.441 171.295 -171.361 -179.457 168.463 -153.629 154.259 50.0135 -18.3842 80.9723 1.24044 -120.966 1.11381 -0 11.1024 -70.3809 1.53637 28.6794 -3.33766 118.658 89.6151 -142.612 60.8108 20.0895 -31.3407 -0 -24.1654 43.9284 178.635 178.983 177.425 6.93849 0.561953 -8.65939 163.071 -179.974 -165.653 151.383 180 -180 169.699 -167.085 -179.839 9.95987 -7.97903 7.66188 167.042 -179.946 165.708 155.167 180 -180
 -4.67322 51.0411 17.494 178.089 -16.6908 179.591 180 179.997 -179.935 6.03914 0.0056989 0.108383 7.47501 0.0170967 0.108383 8.33375 0.00284945 0.0650299 171.962 -179.997 -179.979 151.268 -175.787 -172.713 171.273 -170.682 -179.637 168.529 -153.577 154.417 49.9737 -18.4255 80.9939 1.6169 -120.826 1.42906 -0 10.8347 -70.5943 1.5184 28.6291 -3.29864 127.928 89.6584 -151.932 60.5215 20.1 -31.1151 -0 -24.8714 44.3097 178.669 178.976 177.426 6.89067 0.51586 -8.6604 163.06 -179.972 -165.647 151.383 180 -180 169.578 -166.961 -179.869 10.0608 -8.17638 7.59514 166.909 -179.968 165.686 155.122 180 -180
 -4.68534 51.0482 17.4793 178.087 -16.731 179.607 180 179.997 -179.935 6.04181 0.00515528 0.107736 7.47831 0.0154659 0.107736 8.33744 0.00257764 0.0646418 171.958 -179.997 -179.979 151.258 -175.437 -172.847 171.251 -170.013 -179.78 168.47 -153.729 154.276 50.1184 -19.1108 81.642 1.85904 -120.755 1.48456 -0 10.6322 -70.8728 1.51996 28.5936 -3.30209 137.216 89.6284 -161.368 60.3204 20.0988 -30.9313 -0 -25.7761 44.6617 178.736 178.96 177.42 6.84296 0.487774 -8.64944 162.991 -179.981 -165.649 151.383 180 -180 169.583 -166.918 -179.864 10.1277 -8.38212 7.49105 166.814 179.999 165.701 155.084 180 -180
 -4.66364 51.0515 17.4487 178.11 -16.7685 179.612 180 179.996 -179.939 6.03414 0.00709106 0.100882 7.46822 0.0212732 0.100882 8.3251 0.00354553 0.0605295 171.973 -179.997 -179.98 151.307 -175.149 -172.819 171.25 -169.429 -179.866 168.677 -153.677 154.763 50.4092 -19.2864 82.0457 2.4572 -120.516 2.03084 -0 10.4964 -71.5613 1.50212 28.5697 -3.26332 144.545 89.5902 -168.693 60.1296 20.1415 -30.7693 -0 -26.5523 45.2416 178.779 179.011 177.442 6.81708 0.327479 -8.64504 162.977 179.996 -165.667 151.383 180 -180 169.628 -166.914 -179.784 10.1806 -8.4664 7.40642 166.723 179.98 165.719 155.049 180 -180
 -4.64225 51.0557 17.4366 178.08 -16.8022 179.595 180 179.999 -179.94 6.03065 0.00127382 0.0994736 7.46581 0.00382147 0.0994736 8.32592 0.000636912 0.0596842 171.964 -179.997 -179.98 151.285 -174.901 -172.437 171.228 -168.892 -179.858 168.893 -153.614 155.27 50.7225 -19.4034 82.7209 2.78333 -120.127 2.34291 -0 10.4254 -72.3225 1.48155 28.5857 -3.21859 149.351 89.5497 -173.479 59.9295 20.1243 -30.7082 -0 -27.3652 45.9402 178.86 178.837 177.58 6.70846 0.347395 -8.77357 163.013 -179.967 -165.649 151.383 180 -180 169.508 -166.85 -179.72 10.3974 -8.74617 7.30003 166.557 179.968 165.662 155.017 180 -180
 -4.65992 51.0582 17.3956 178.092 -16.6879 179.67 180 179.997 -179.944 6.03035 0.00630049 0.0927718 7.4653 0.0189015 0.0927718 8.32513 0.00315025 0.0556631 171.965 -179.997 -179.982 151.288 -174.669 -172.2 171.214 -168.4 -179.878 168.87 -153.558 155.217 50.851 -19.2506 82.9257 2.73283 -119.896 2.34237 -0 10.4254 -73.089 1.51617 28.6256 -3.29379 147.149 89.5494 -171.306 59.8823 20.118 -30.6558 -0 -28.3387 46.5415 178.959 178.613 177.585 6.68919 0.520703 -8.88939 162.965 -179.928 -165.632 151.383 180 -180 169.556 -166.953 -179.763 10.5115 -8.97629 7.23638 166.457 179.939 165.731 154.989 180 -180
 -4.68776 51.0599 17.3717 178.073 -16.6744 179.762 180 179.995 -179.95 6.0258 0.00900874 0.0834769 7.4602 0.0270262 0.0834769 8.32049 0.00450437 0.0500861 171.968 -179.998 -179.983 151.3 -174.415 -172.157 171.201 -167.889 -179.951 168.64 -153.618 154.677 51.091 -19.1317 83.1835 2.69385 -119.693 2.3467 -0 10.42 -73.6987 1.52129 28.645 -3.3049 146.519 89.5274 -170.665 59.9174 20.0277 -30.5686 -0 -29.2977 47.0565 179.103 178.447 177.479 6.50334 0.650254 -8.97781 162.963 -179.882 -165.628 151.383 180 -180 169.542 -167.005 -179.847 10.5941 -9.2535 7.15635 166.382 179.918 165.797 154.963 180 -180
